<?xml version="1.0" encoding="UTF-8"?>
<svg version="1.1" xmlns="http://www.w3.org/2000/svg" width="48" height="48">
<path d="M0 0 C3.96 0 7.92 0 12 0 C12.0246501 5.10863896 12.04283607 10.21724359 12.05493164 15.32592773 C12.05997204 17.06519168 12.0668043 18.80445136 12.07543945 20.54370117 C12.08751792 23.03825937 12.09323108 25.53276173 12.09765625 28.02734375 C12.10281754 28.80963852 12.10797882 29.59193329 12.11329651 30.39793396 C12.11349226 32.26567114 12.06199694 34.13329204 12 36 C11 37 11 37 8.75 37.1328125 C7.8425 37.13023438 6.935 37.12765625 6 37.125 C4.63875 37.12886719 4.63875 37.12886719 3.25 37.1328125 C1 37 1 37 0 36 C-0.08855161 33.3337397 -0.11524673 30.69352886 -0.09765625 28.02734375 C-0.0962413 27.22970108 -0.09482635 26.43205841 -0.09336853 25.61024475 C-0.08775316 23.05262565 -0.07519812 20.49509282 -0.0625 17.9375 C-0.05748698 16.20768355 -0.05292373 14.47786574 -0.04882812 12.74804688 C-0.03777875 8.49866447 -0.02050386 4.24934688 0 0 Z M4 4 C4 13.24 4 22.48 4 32 C5.32 32 6.64 32 8 32 C8 22.76 8 13.52 8 4 C6.68 4 5.36 4 4 4 Z " fill="#262335" transform="translate(18,3)"/>
<path d="M0 0 C1.51400391 0.01740234 1.51400391 0.01740234 3.05859375 0.03515625 C4.07050781 0.04417969 5.08242187 0.05320312 6.125 0.0625 C7.29869141 0.07990234 7.29869141 0.07990234 8.49609375 0.09765625 C8.52496126 4.24347512 8.54284702 8.38926841 8.55859375 12.53515625 C8.56697266 13.71916016 8.57535156 14.90316406 8.58398438 16.12304688 C8.58720703 17.24775391 8.59042969 18.37246094 8.59375 19.53125 C8.59898682 20.57337646 8.60422363 21.61550293 8.60961914 22.68920898 C8.49609375 25.09765625 8.49609375 25.09765625 7.49609375 26.09765625 C5.83180324 26.19589562 4.16327444 26.22739256 2.49609375 26.22265625 C1.13484375 26.22652344 1.13484375 26.22652344 -0.25390625 26.23046875 C-2.50390625 26.09765625 -2.50390625 26.09765625 -3.50390625 25.09765625 C-3.60337078 23.32906432 -3.63470842 21.55654174 -3.63671875 19.78515625 C-3.63800781 18.71007812 -3.63929687 17.635 -3.640625 16.52734375 C-3.63482422 14.82964844 -3.63482422 14.82964844 -3.62890625 13.09765625 C-3.63277344 11.96585938 -3.63664063 10.8340625 -3.640625 9.66796875 C-3.63933594 8.59289062 -3.63804688 7.5178125 -3.63671875 6.41015625 C-3.63559082 5.41628906 -3.63446289 4.42242187 -3.63330078 3.3984375 C-3.45163807 0.16826883 -3.24745216 0.1266557 0 0 Z M1.49609375 5.09765625 C1.49609375 10.37765625 1.49609375 15.65765625 1.49609375 21.09765625 C2.48609375 21.09765625 3.47609375 21.09765625 4.49609375 21.09765625 C4.49609375 15.81765625 4.49609375 10.53765625 4.49609375 5.09765625 C3.50609375 5.09765625 2.51609375 5.09765625 1.49609375 5.09765625 Z " fill="#272537" transform="translate(6.50390625,13.90234375)"/>
<path d="M0 0 C1.81242052 -0.02687279 3.62495233 -0.04633715 5.4375 -0.0625 C6.44683594 -0.07410156 7.45617188 -0.08570312 8.49609375 -0.09765625 C11 0 11 0 12 1 C12.08631874 2.34267413 12.10706473 3.68974322 12.09765625 5.03515625 C12.09443359 5.84404297 12.09121094 6.65292969 12.08789062 7.48632812 C12.07951172 8.33646484 12.07113281 9.18660156 12.0625 10.0625 C12.05798828 10.91650391 12.05347656 11.77050781 12.04882812 12.65039062 C12.03700373 14.76695663 12.01906769 16.88348685 12 19 C9.6203388 20.1898306 8.08514265 20.13349966 5.4375 20.125 C4.22900391 20.12886719 4.22900391 20.12886719 2.99609375 20.1328125 C1 20 1 20 0 19 C-0.08651611 17.58429877 -0.10704904 16.164405 -0.09765625 14.74609375 C-0.09443359 13.89208984 -0.09121094 13.03808594 -0.08789062 12.15820312 C-0.07951172 11.26037109 -0.07113281 10.36253906 -0.0625 9.4375 C-0.05798828 8.53580078 -0.05347656 7.63410156 -0.04882812 6.70507812 C-0.03700225 4.46998686 -0.0205222 2.23502563 0 0 Z M4 4 C4 7.63 4 11.26 4 15 C4.99 15 5.98 15 7 15 C7 11.37 7 7.74 7 4 C6.01 4 5.02 4 4 4 Z " fill="#FF643D" transform="translate(33,20)"/>
<path d="M0 0 C15.84 0 31.68 0 48 0 C48 1.32 48 2.64 48 4 C32.16 4 16.32 4 0 4 C0 2.68 0 1.36 0 0 Z " fill="#262335" transform="translate(0,41)"/>
</svg>
