<?xml version="1.0" standalone="no"?>
<!DOCTYPE svg PUBLIC "-//W3C//DTD SVG 20010904//EN"
 "http://www.w3.org/TR/2001/REC-SVG-20010904/DTD/svg10.dtd">
<svg version="1.0" xmlns="http://www.w3.org/2000/svg"
 width="48.000000pt" height="48.000000pt" viewBox="0 0 48.000000 48.000000"
 preserveAspectRatio="xMidYMid meet">

<g transform="translate(0.000000,48.000000) scale(0.100000,-0.100000)"
fill="#000000" stroke="none">
<path d="M121 446 c-7 -8 -26 -18 -42 -21 -16 -4 -33 -14 -38 -23 -5 -9 -10
-98 -12 -197 l-4 -180 215 0 215 0 -4 200 c-3 162 -6 203 -19 218 -13 15 -34
17 -157 17 -112 0 -145 -3 -154 -14z m287 -18 c8 -8 12 -50 12 -125 l0 -113
-58 0 c-46 0 -63 -4 -77 -20 -23 -26 -59 -26 -85 0 -11 11 -29 20 -40 20 -19
0 -20 7 -20 119 0 86 3 121 13 124 27 11 243 7 255 -5z m-308 -138 c0 -93 -1
-100 -20 -100 -19 0 -20 7 -20 93 0 95 3 107 27 107 10 0 13 -23 13 -100z m80
-155 c16 -19 90 -20 116 0 11 9 42 14 77 15 l57 0 0 -50 0 -50 -195 0 -195 0
0 50 0 50 64 0 c44 0 67 -5 76 -15z"/>
</g>
</svg>
