<?xml version="1.0" standalone="no"?>
<!DOCTYPE svg PUBLIC "-//W3C//DTD SVG 20010904//EN"
 "http://www.w3.org/TR/2001/REC-SVG-20010904/DTD/svg10.dtd">
<svg version="1.0" xmlns="http://www.w3.org/2000/svg"
 width="32.000000pt" height="34.000000pt" viewBox="0 0 32.000000 34.000000"
 preserveAspectRatio="xMidYMid meet">

<g transform="translate(0.000000,34.000000) scale(0.100000,-0.100000)"
fill="#000000" stroke="none">
<path d="M17 314 c-12 -13 -8 -56 6 -51 6 2 12 10 12 18 0 11 26 15 128 17
l128 3 -3 -128 -3 -128 -125 0 c-124 0 -124 0 -131 25 -5 21 -7 22 -13 8 -4
-9 -6 -25 -4 -35 3 -16 16 -18 148 -18 l145 0 0 145 0 145 -141 3 c-77 1 -143
-1 -147 -4z"/>
<path d="M118 234 c-9 -19 -9 -30 -1 -44 10 -14 8 -21 -8 -36 -10 -9 -19 -28
-19 -41 0 -22 3 -23 70 -23 67 0 70 1 70 24 0 13 -6 29 -14 35 -10 8 -13 23
-9 47 7 42 -10 64 -48 64 -22 0 -32 -7 -41 -26z m72 -9 c10 -12 10 -18 0 -30
-27 -32 -71 -8 -56 30 3 8 14 15 24 15 11 0 25 -7 32 -15z m18 -97 c3 -15 -4
-18 -47 -18 -28 0 -51 4 -51 8 0 34 92 43 98 10z"/>
</g>
</svg>
