<?xml version="1.0" standalone="no"?>
<!DOCTYPE svg PUBLIC "-//W3C//DTD SVG 20010904//EN"
 "http://www.w3.org/TR/2001/REC-SVG-20010904/DTD/svg10.dtd">
<svg version="1.0" xmlns="http://www.w3.org/2000/svg"
 width="34.000000pt" height="30.000000pt" viewBox="0 0 34.000000 30.000000"
 preserveAspectRatio="xMidYMid meet">

<g transform="translate(0.000000,30.000000) scale(0.100000,-0.100000)"
fill="#000000" stroke="none">
<path d="M17 282 c-13 -15 -17 -39 -17 -115 0 -90 2 -97 23 -108 12 -6 30 -20
40 -30 23 -24 39 -24 62 1 13 14 31 20 64 20 35 0 49 -5 59 -20 33 -53 92 7
92 94 0 63 -35 106 -87 106 -25 0 -33 4 -33 18 0 37 -32 52 -112 52 -60 0 -78
-4 -91 -18z m172 -16 c8 -9 11 -46 9 -103 l-3 -88 -30 3 c-16 2 -34 8 -40 13
-12 12 -52 12 -60 -1 -3 -5 -15 -10 -26 -10 -17 0 -19 8 -19 88 0 55 4 92 12
100 17 17 142 16 157 -2z m108 -78 c16 -15 23 -33 23 -58 0 -35 -1 -36 -30
-32 -20 3 -37 -2 -50 -13 -20 -18 -20 -17 -20 53 0 71 0 72 27 72 15 0 37 -10
50 -22z m-181 -119 c3 -6 0 -17 -7 -25 -18 -17 -44 -2 -36 20 7 18 33 21 43 5z
m184 -8 c0 -26 -17 -36 -35 -21 -18 15 -8 40 16 40 12 0 19 -7 19 -19z"/>
</g>
</svg>
