<?xml version="1.0" standalone="no"?>
<!DOCTYPE svg PUBLIC "-//W3C//DTD SVG 20010904//EN"
 "http://www.w3.org/TR/2001/REC-SVG-20010904/DTD/svg10.dtd">
<svg version="1.0" xmlns="http://www.w3.org/2000/svg"
 width="48.000000pt" height="48.000000pt" viewBox="0 0 48.000000 48.000000"
 preserveAspectRatio="xMidYMid meet">

<g transform="translate(0.000000,48.000000) scale(0.100000,-0.100000)"
fill="#000000" stroke="none">
<path d="M46 439 c-19 -15 -26 -30 -26 -54 0 -47 27 -75 78 -82 l42 -6 0 -63
0 -64 -60 0 c-47 0 -60 -3 -60 -15 0 -12 13 -15 60 -15 l60 0 0 -60 c0 -47 3
-60 15 -60 12 0 15 13 15 60 l0 60 65 0 65 0 0 -60 c0 -47 3 -60 15 -60 12 0
15 13 15 60 l0 60 36 0 c32 0 35 -2 24 -15 -9 -10 -10 -19 -4 -25 7 -7 22 3
44 25 l34 35 -32 32 c-24 25 -34 30 -43 21 -9 -9 -9 -16 1 -28 12 -15 10 -16
-21 -13 l-34 3 -3 63 -3 62 56 0 c41 0 55 4 55 14 0 11 -15 16 -52 18 -52 3
-53 3 -56 37 -3 31 -2 33 13 21 12 -10 19 -10 28 -1 9 9 4 19 -21 43 l-32 32
-35 -34 c-22 -22 -32 -37 -25 -44 6 -6 15 -5 25 4 13 11 15 8 15 -24 l0 -37
-62 3 -63 3 -3 42 c-5 73 -71 105 -126 62z m75 -19 c14 -8 19 -21 19 -50 0
-36 -2 -40 -26 -40 -41 0 -64 18 -64 48 0 46 30 64 71 42z m179 -185 l0 -66
-62 3 -63 3 -3 63 -3 62 66 0 65 0 0 -65z"/>
</g>
</svg>
